HIERARCHY
ROOT Hips
{
	OFFSET 0.000000 0.000000 0.000000
	CHANNELS 6 Xposition Yposition Zposition Xrotation Yrotation Zrotation
	JOINT LeftUpLeg_virtual
	{
		OFFSET 0.000000 0.000000 0.000000
		CHANNELS 3 Xrotation Yrotation Zrotation
		JOINT LeftUpLeg
		{
			OFFSET 10.205400 -3.823500 0.155100
			CHANNELS 3 Xrotation Yrotation Zrotation
			JOINT LeftLeg
			{
				OFFSET 0.708757 -12.982077 0.567790
				CHANNELS 3 Xrotation Yrotation Zrotation
				JOINT LeftFoot
				{
					OFFSET -0.708756 -10.717838 -2.184338
					CHANNELS 3 Xrotation Yrotation Zrotation
					JOINT LeftToeBase
					{
						OFFSET 0.108149 -7.191104 7.560241
						CHANNELS 3 Xrotation Yrotation Zrotation
						JOINT LeftToe_End
						{
							OFFSET 0.070230 0.081724 4.490308
							CHANNELS 3 Xrotation Yrotation Zrotation
							End Site
							{
								OFFSET 0 0 0
							}
						}
					}
				}
			}
		}
	}
	JOINT RightUpLeg_virtual
	{
		OFFSET 0.000000 0.000000 0.000000
		CHANNELS 3 Xrotation Yrotation Zrotation
		JOINT RightUpLeg
		{
			OFFSET -10.205400 -3.823500 0.005500
			CHANNELS 3 Xrotation Yrotation Zrotation
			JOINT RightLeg
			{
				OFFSET -0.708756 -12.982134 0.610632
				CHANNELS 3 Xrotation Yrotation Zrotation
				JOINT RightFoot
				{
					OFFSET 0.708754 -10.717769 -1.945823
					CHANNELS 3 Xrotation Yrotation Zrotation
					JOINT RightToeBase
					{
						OFFSET -0.108140 -7.191069 7.372968
						CHANNELS 3 Xrotation Yrotation Zrotation
						JOINT RightToe_End
						{
							OFFSET -0.070227 0.081735 4.479403
							CHANNELS 3 Xrotation Yrotation Zrotation
							End Site
							{
								OFFSET 0 0 0
							}
						}
					}
				}
			}
		}
	}
	JOINT Spine_virtual
	{
		OFFSET 0.000000 0.000000 0.000000
		CHANNELS 3 Xrotation Yrotation Zrotation
		JOINT Spine
		{
			OFFSET 0.000000 6.876099 0.125700
			CHANNELS 3 Xrotation Yrotation Zrotation
			JOINT Spine1
			{
				OFFSET 0.000000 5.730043 0.104720
				CHANNELS 3 Xrotation Yrotation Zrotation
				JOINT Spine1_split
				{
					OFFSET 0.000000 5.730043 0.104720
					CHANNELS 3 Xrotation Yrotation Zrotation
					JOINT Spine2
					{
						OFFSET 0.000000 5.730043 0.104720
						CHANNELS 3 Xrotation Yrotation Zrotation
						JOINT Neck_virtual
						{
							OFFSET 0.000000 0.000000 0.000000
							CHANNELS 3 Xrotation Yrotation Zrotation
							JOINT Neck
							{
								OFFSET 0.000000 10.314075 0.188496
								CHANNELS 3 Xrotation Yrotation Zrotation
								JOINT Head
								{
									OFFSET 0.000000 7.643700 -2.377400
									CHANNELS 3 Xrotation Yrotation Zrotation
									JOINT HeadTop_End
									{
										OFFSET 0.000000 43.788605 -13.619600
										CHANNELS 3 Xrotation Yrotation Zrotation
										End Site
										{
											OFFSET 0 0 0
										}
									}
								}
							}
						}
						JOINT LeftShoulder_virtual
						{
							OFFSET 0.000000 0.000000 0.000000
							CHANNELS 3 Xrotation Yrotation Zrotation
							JOINT LeftShoulder
							{
								OFFSET 2.196100 4.412489 0.087492
								CHANNELS 3 Xrotation Yrotation Zrotation
								JOINT LeftShoulder_split
								{
									OFFSET 2.196100 4.412489 0.087492
									CHANNELS 3 Xrotation Yrotation Zrotation
									JOINT LeftArm
									{
										OFFSET 8.771219 -2.981674 -0.026999
										CHANNELS 3 Xrotation Yrotation Zrotation
										JOINT LeftForeArm
										{
											OFFSET 8.512804 0.000000 -0.000000
											CHANNELS 3 Xrotation Yrotation Zrotation
											JOINT LeftHand
											{
												OFFSET 18.484802 0.000000 -0.000000
												CHANNELS 3 Xrotation Yrotation Zrotation
												End Site
												{
													OFFSET 0 0 0
												}
											}
										}
									}
								}
							}
						}
						JOINT RightShoulder_virtual
						{
							OFFSET 0.000000 0.000000 0.000000
							CHANNELS 3 Xrotation Yrotation Zrotation
							JOINT RightShoulder
							{
								OFFSET -2.196100 4.412496 0.070690
								CHANNELS 3 Xrotation Yrotation Zrotation
								JOINT RightShoulder_split
								{
									OFFSET -2.196100 4.412496 0.070690
									CHANNELS 3 Xrotation Yrotation Zrotation
									JOINT RightArm
									{
										OFFSET -8.771282 -2.981682 -0.094208
										CHANNELS 3 Xrotation Yrotation Zrotation
										JOINT RightForeArm
										{
											OFFSET -8.494598 0.000000 0.000000
											CHANNELS 3 Xrotation Yrotation Zrotation
											JOINT RightHand
											{
												OFFSET -18.483803 0.000000 0.000001
												CHANNELS 3 Xrotation Yrotation Zrotation
												End Site
												{
													OFFSET 0 0 0
												}
											}
										}
									}
								}
							}
						}
					}
				}
			}
		}
	}
}
MOTION
Frames: 7
Frame Time: 0.03333333
-6.384342 32.547176 -1.388264 0.000000 0.000000 0.000000 -173.728949 -52.098866 -168.544917 -102.205202 -27.058059 9.134770 90.785023 -14.877467 -44.170683 51.380419 -16.378778 -28.531020 -7.027958 -0.685022 1.733891 0.000000 0.000000 0.000000 -174.412104 -48.737532 -169.823693 -3.925730 33.879743 -5.998499 36.942198 14.952189 -2.240353 -22.142331 11.466774 7.995000 -2.092772 1.045995 3.462762 0.000000 0.000000 0.000000 -171.340964 -50.994766 -165.004967 18.643529 3.254068 0.925466 7.139604 -0.002661 0.122740 1.013517 -1.849600 0.782436 0.000000 0.000000 0.000000 10.544555 0.215279 -0.591523 4.669919 38.661514 5.690748 8.897786 47.960789 -31.558192 0.000000 0.000000 0.000000 9.676428 -0.156032 -0.380749 -2.219178 -12.800226 11.562761 2.816671 0.121856 -1.665605 -54.819843 -49.093016 -41.611900 -97.577367 -26.069152 -91.809279 0.000000 0.000000 0.000000 7.973133 -0.422881 -0.599146 -3.750999 20.369885 4.054963 3.798657 -2.197383 4.014489 -54.854670 14.114884 26.343515 128.515296 41.392043 -123.969942 0.000000 0.000000 0.000000 
-6.846009 32.734081 -1.346231 0.000000 0.000000 0.000000 -172.445775 -49.691457 -166.310189 -107.390894 -24.506679 9.621350 90.236293 -18.478233 -43.284695 45.981786 -20.236432 -35.650941 -11.975004 -1.149931 2.906136 0.000000 0.000000 0.000000 -173.582796 -44.526655 -167.972015 -1.704481 35.776486 -7.810127 37.031909 15.614753 -1.945746 -22.055687 12.447821 8.350136 -3.704561 1.004813 3.713581 0.000000 0.000000 0.000000 -171.505791 -47.961134 -164.985118 19.195873 3.775268 0.791863 7.681711 0.257381 -0.248681 0.798826 -1.798940 0.847674 0.000000 0.000000 0.000000 11.176303 0.423944 -1.110281 6.105499 39.135577 4.856525 8.105940 48.922121 -31.909442 0.000000 0.000000 0.000000 10.361078 0.042767 -0.769530 -1.737026 -12.441502 16.029038 2.637699 -0.355028 -1.693703 -66.442905 -45.922616 -47.291977 -96.681109 -27.768776 -91.113617 0.000000 0.000000 0.000000 8.497105 -0.253044 -1.003295 -2.712578 21.045809 -0.042615 3.797402 -2.527263 4.093714 -61.723190 12.873894 25.474828 130.211505 41.093242 -126.431309 0.000000 0.000000 0.000000 
-7.239975 32.917850 -1.345284 0.000000 0.000000 0.000000 -171.305283 -47.695634 -164.016638 -112.663882 -22.983590 10.542762 91.115652 -23.280792 -41.731189 43.678551 -25.192859 -41.981392 -15.998496 -1.709965 4.384848 0.000000 0.000000 0.000000 -172.929721 -41.498296 -166.307074 0.534892 37.246032 -10.148642 37.248836 16.227751 -1.425184 -21.463711 13.121604 9.240947 -6.304142 0.798718 3.927699 0.000000 0.000000 0.000000 -171.520598 -45.703347 -164.570608 19.770415 4.095615 0.683085 8.076855 0.406074 -0.617800 0.707370 -1.907378 0.976818 0.000000 0.000000 0.000000 11.636061 0.521611 -1.585465 7.483265 39.519468 3.872415 7.523215 49.722315 -32.356372 0.000000 0.000000 0.000000 10.905346 0.134735 -1.151102 -1.346704 -12.129899 20.358463 2.765859 -0.731451 -1.780796 -75.316291 -42.005571 -51.482633 -95.715122 -29.384211 -90.190599 0.000000 0.000000 0.000000 8.856726 -0.184307 -1.369486 -1.642818 21.543057 -4.199180 3.838123 -2.882807 4.004251 -67.609440 11.050115 23.533133 131.867935 41.197051 -128.698044 0.000000 0.000000 0.000000 
-7.532005 33.019485 -1.369547 0.000000 0.000000 0.000000 -170.368632 -46.233066 -162.030132 -116.596766 -21.904680 11.752029 92.406551 -26.400423 -41.242598 43.010623 -27.633156 -45.399410 -17.182278 -1.995929 5.246424 0.000000 0.000000 0.000000 -172.405326 -39.636100 -164.878089 2.558219 38.186987 -12.697364 37.697324 16.719538 -0.636729 -21.075879 13.373958 10.343683 -8.711718 0.510120 4.114608 0.000000 0.000000 0.000000 -171.250833 -44.245159 -163.584451 20.342793 4.238948 0.561464 8.324599 0.419865 -0.931852 0.549010 -2.270675 0.992839 0.000000 0.000000 0.000000 11.938060 0.504271 -1.960011 8.744858 39.784151 2.819501 7.026302 50.347230 -32.774174 0.000000 0.000000 0.000000 11.273584 0.126267 -1.449105 -1.013739 -12.008341 24.438603 3.125389 -1.047326 -1.917728 -81.659597 -38.152487 -54.081646 -94.995514 -30.929644 -89.464666 0.000000 0.000000 0.000000 9.019072 -0.208903 -1.649876 -0.619178 21.892348 -8.058748 3.932171 -3.061776 3.970211 -72.527463 8.659166 20.669131 133.761182 41.466751 -131.020869 0.000000 0.000000 0.000000 
-7.748172 33.014011 -1.391682 0.000000 0.000000 0.000000 -169.777575 -45.106709 -160.511030 -118.130690 -21.103985 13.125673 92.626641 -26.716070 -42.566658 41.286130 -26.239587 -46.690972 -16.834553 -1.981852 5.491103 0.000000 0.000000 0.000000 -171.962061 -38.855765 -163.599437 3.851453 38.719407 -15.001240 38.705087 17.045620 0.251054 -21.539143 13.155427 11.199628 -9.600704 0.295359 4.325642 0.000000 0.000000 0.000000 -170.653192 -43.430434 -162.074174 20.870802 4.224727 0.427410 8.402244 0.299760 -1.175014 0.373951 -2.664428 1.041693 0.000000 0.000000 0.000000 12.107111 0.401513 -2.216053 9.924225 39.949814 1.785115 6.569842 50.714752 -33.047040 0.000000 0.000000 0.000000 11.480059 0.030418 -1.657181 -0.695344 -12.102918 28.079773 3.369158 -1.353266 -2.020294 -85.926027 -35.132533 -55.461256 -94.663642 -32.519320 -89.243245 0.000000 0.000000 0.000000 9.025088 -0.302751 -1.832373 0.240657 22.084462 -11.244574 4.115052 -3.133440 4.068465 -76.535534 5.768303 17.244583 135.770104 41.816126 -133.367490 0.000000 0.000000 0.000000 
-7.887879 32.925087 -1.425877 0.000000 0.000000 0.000000 -169.618773 -44.124900 -159.514342 -117.641990 -20.798242 14.467444 92.009663 -25.465098 -44.952012 37.594372 -22.353493 -47.274386 -16.864789 -1.853583 5.304770 0.000000 0.000000 0.000000 -171.555077 -38.952869 -162.414932 4.018920 39.007801 -16.799764 40.454585 17.164120 1.077336 -22.874746 12.462401 11.654467 -8.628423 0.273434 4.603336 0.000000 0.000000 0.000000 -169.981770 -43.194540 -160.459216 21.282714 4.128746 0.265316 8.314247 0.092675 -1.370683 0.337139 -3.132346 1.060222 0.000000 0.000000 0.000000 12.157177 0.251461 -2.386397 11.010647 40.009141 0.875744 6.059355 50.818110 -33.088588 0.000000 0.000000 0.000000 11.529434 -0.130755 -1.811687 -0.371906 -12.378402 31.131374 3.308269 -1.449648 -2.140101 -88.567459 -33.170698 -55.993092 -94.631021 -34.173537 -89.455657 0.000000 0.000000 0.000000 8.916308 -0.427185 -1.942614 0.870227 22.157410 -13.558737 4.372041 -3.114188 4.299171 -79.784314 2.735211 13.594203 137.701791 42.210173 -135.602478 0.000000 0.000000 0.000000 
-7.921834 32.774708 -1.391201 0.000000 0.000000 0.000000 -169.780785 -43.656906 -158.921645 -116.803065 -21.235517 15.827133 91.909191 -24.633257 -46.978734 33.923572 -19.178488 -47.474753 -17.373932 -1.835802 4.757003 0.000000 0.000000 0.000000 -171.263196 -39.698764 -161.276039 3.144108 39.236705 -18.170637 42.650041 17.266619 1.735730 -24.680071 11.495518 12.172670 -6.569532 0.454710 4.834336 0.000000 0.000000 0.000000 -169.568462 -43.581125 -159.224646 21.479224 3.997658 0.072112 8.079441 -0.166773 -1.525554 0.350242 -3.637623 1.148896 0.000000 0.000000 0.000000 12.100022 0.061755 -2.499460 11.896613 39.971056 0.154913 5.579841 50.719120 -32.953761 0.000000 0.000000 0.000000 11.454717 -0.347559 -1.955940 -0.023233 -12.788734 33.515421 2.848750 -1.544661 -2.138371 -89.913143 -32.239627 -55.950082 -94.686851 -35.860146 -89.871930 0.000000 0.000000 0.000000 8.755853 -0.573113 -1.999392 1.253883 22.120032 -14.916715 4.638592 -3.213922 4.408403 -82.441551 -0.147646 10.226072 139.470837 42.558448 -137.699018 0.000000 0.000000 0.000000 
